<?xml version="1.0" standalone="no"?>
<!DOCTYPE svg PUBLIC "-//W3C//DTD SVG 1.1//EN" "http://www.w3.org/Graphics/SVG/1.1/DTD/svg11.dtd">
<svg xmlns="http://www.w3.org/2000/svg">
<defs >
<font id="Volkhov" horiz-adv-x="563" ><font-face
    font-family="Volkhov"
    units-per-em="1000"
    panose-1="2 0 5 3 0 0 0 2 0 4"
    ascent="971"
    descent="-319"
    alphabetic="0" />
<glyph unicode=" " glyph-name="space" horiz-adv-x="223" />
<glyph unicode="!" glyph-name="exclam" horiz-adv-x="299" d="M64 71Q64 105 89 130T150 156Q185 156 210 131T235 71Q235 38 210 12T150 -15Q115 -15 90 11T64 71ZM75 700H223L203 208H95L75 700Z" />
<glyph unicode="&quot;" glyph-name="quotedbl" horiz-adv-x="375" d="M212 715H337L307 480H241L212 715ZM38 715H164L134 480H68L38 715Z" />
<glyph unicode="#" glyph-name="numbersign" horiz-adv-x="609" d="M46 191V274H141L174 446H73V529H189L223 715H309L274 529H389L424 715H510L474 529H564V446H459L426 274H537V191H410L375 0H290L325 191H211L175 0H90L125 191H46ZM226 274H341L374 446H259L226 274Z" />
<glyph unicode="$" glyph-name="dollar" horiz-adv-x="616" d="M55 32V216H111L162 68Q210 53 273 53H277V304Q272 306 263 310T248 317Q163 354 113 404T63 534Q63 610 122 658T277 714V777H351V714Q457 708 525 684V500H469L420 641Q394 646 351 648V429Q362
424 371 421Q420 404 460 379T532 309T569 210Q569 111 510 55T351 -12V-83H277V-15Q147 -10 55 32ZM195 562Q195 507 277 462V643Q238 634 217 613T195 562ZM351 65Q391 79 414 106T438 166Q438 227 351 272V65Z" />
<glyph unicode="%" glyph-name="percent" horiz-adv-x="746" d="M80 420Q39 470 39 543Q39 580 49 611T80 666T130 702T196 715Q233 715 262 702T311 665T341 611T352 543Q352 507 342 476T312 421T263 384T196 371Q122 371 80 420ZM196 420Q246 420 246 543Q246
666 196 666Q145 666 145 543Q145 420 196 420ZM155 0L504 700H589L241 0H155ZM434 34Q393 84 393 157Q393 194 403 225T434 280T484 316T550 329Q587 329 616 316T666 279T696 224T707 157Q707 121 697 90T666 35T617 -1T550 -15Q476 -15 434 34ZM499 157Q499
34 550 34Q601 34 601 157Q601 279 550 279Q499 279 499 157Z" />
<glyph unicode="&amp;" glyph-name="ampersand" horiz-adv-x="772" d="M36 166Q36 292 188 365Q140 419 119 461T98 554Q98 629 152 672T304 715Q399 715 453 670T508 558Q508 450 362 372L510 226Q528 269 536 323L476 345V400H691V345L606 323Q594 242 562 176L662
81L773 55V0H565L491 71Q407 -15 279 -15Q164 -15 100 32T36 166ZM173 173Q173 121 206 91T294 60Q384 60 442 118L241 310Q173 252 173 173ZM226 565Q226 543 235 523T261 481L310 428Q380 484 380 562Q380 602 359 625T302 648Q268 648 247 626T226 565Z" />
<glyph unicode="&apos;" glyph-name="quotesingle" horiz-adv-x="212" d="M38 715H174L144 480H68L38 715Z" />
<glyph unicode="(" glyph-name="parenleft" horiz-adv-x="344" d="M30 250Q30 426 108 573T309 807L344 761Q250 667 199 532T148 250Q148 101 199 -34T345 -263L309 -307Q186 -224 108 -77T30 250Z" />
<glyph unicode=")" glyph-name="parenright" horiz-adv-x="344" d="M-1 -263Q93 -170 144 -35T195 250Q195 398 144 533T-1 761L34 807Q157 720 235 573T314 250Q314 71 236 -76T34 -307L-1 -263Z" />
<glyph unicode="*" glyph-name="asterisk" horiz-adv-x="477" d="M44 583L76 681L209 612L186 760H290L267 612L401 680L433 583L286 555L390 449L307 388L238 520L169 387L84 452L191 556L44 583Z" />
<glyph unicode="+" glyph-name="plus" horiz-adv-x="545" d="M43 313V399H229V585H315V399H502V313H315V127H229V313H43Z" />
<glyph unicode="," glyph-name="comma" horiz-adv-x="265" d="M25 -135Q84 -74 118 -5L37 46Q37 87 64 114T129 141Q174 141 198 116T222 43Q222 -15 174 -79T72 -177L25 -135Z" />
<glyph unicode="-" glyph-name="hyphen" horiz-adv-x="335" d="M58 226V322H277V226H58Z" />
<glyph unicode="." glyph-name="period" horiz-adv-x="253" d="M41 63Q41 97 66 122T127 148Q162 148 187 123T212 63Q212 30 187 4T127 -23Q92 -23 67 3T41 63Z" />
<glyph unicode="/" glyph-name="slash" horiz-adv-x="462" d="M29 0L340 700H434L124 0H29Z" />
<glyph unicode="0" glyph-name="zero" horiz-adv-x="632" d="M48 350Q48 506 120 610T316 715Q440 715 512 611T584 350Q584 191 512 88T316 -15Q192 -15 120 88T48 350ZM316 646Q214 646 214 350Q214 54 316 54Q418 54 418 350Q418 646 316 646Z" />
<glyph unicode="1" glyph-name="one" horiz-adv-x="442" d="M26 589L237 700H324V69L409 53V0H47V53L162 73V589L42 538L26 589Z" />
<glyph unicode="2" glyph-name="two" horiz-adv-x="544" d="M31 0V70Q46 85 67 108T133 187T212 295T273 414T300 534Q300 584 278 620T221 656L103 538Q50 587 46 665Q143 715 258 715Q351 715 409 674T467 548Q467 363 204 127H413L452 205H506L478 0H31Z" />
<glyph unicode="3" glyph-name="three" horiz-adv-x="546" d="M21 26L42 85Q119 57 183 57Q253 57 294 95T335 191Q335 259 287 297T157 335V400Q217 400 258 440T299 546Q299 595 272 626T214 658L102 546Q85 558 68 598T49 667Q58 672 74 680T139 701T240 715Q357
715 411 671T465 553Q465 495 423 449T305 379Q400 364 451 315T502 193Q502 90 424 38T224 -15Q114 -15 21 26Z" />
<glyph unicode="4" glyph-name="four" horiz-adv-x="582" d="M12 128V187L393 700H466V207H545V128H466V-15H319V128H12ZM132 207H319V455L132 207Z" />
<glyph unicode="5" glyph-name="five" horiz-adv-x="538" d="M21 27L45 81Q105 56 157 56Q230 56 277 97T325 218Q325 294 286 333T181 373Q144 373 97 362L75 376L104 700H389L456 771L507 747L437 574H169L156 440Q209 451 253 451Q368 451 429 389T490 227Q490
149 448 93T343 11T208 -15Q97 -15 23 26L21 27Z" />
<glyph unicode="6" glyph-name="six" horiz-adv-x="580" d="M46 300Q46 481 158 594T465 707L463 639Q357 639 292 571T207 388Q266 440 341 440Q442 440 495 375T549 212Q549 116 485 51T309 -15Q185 -15 116 72T46 300ZM199 291Q199 216 206 166T235 83T293
50Q331 50 358 94T385 195Q385 267 355 308T276 349Q231 349 200 327Q199 315 199 291Z" />
<glyph unicode="7" glyph-name="seven" horiz-adv-x="497" d="M26 495L54 700H496V656Q298 386 259 0H99Q116 137 185 296T336 573H117L80 495H26Z" />
<glyph unicode="8" glyph-name="eight" horiz-adv-x="589" d="M56 163Q56 266 188 361Q74 447 74 543Q74 628 136 671T295 715Q387 715 449 672T511 552Q511 461 418 389Q537 305 537 189Q537 99 465 42T286 -15Q178 -15 117 32T56 163ZM176 162Q176 113 205 82T281
51Q324 51 353 79T382 158Q382 190 362 220T318 269T252 317Q176 240 176 162ZM228 568Q228 540 246 514T286 473T348 433Q393 489 393 551Q393 595 370 620T305 646Q275 646 252 624T228 568Z" />
<glyph unicode="9" glyph-name="nine" horiz-adv-x="580" d="M31 487Q31 584 95 649T271 715Q395 715 464 628T534 400Q534 218 421 102T123 -15H115L116 53Q223 53 288 123T373 312Q316 259 239 259Q138 259 85 324T31 487ZM195 504Q195 432 225 391T304 350Q347
350 380 372Q380 378 380 390T381 409Q381 524 360 587T286 650Q249 650 222 606T195 504Z" />
<glyph unicode=":" glyph-name="colon" horiz-adv-x="285" d="M57 70Q57 104 82 129T143 155Q178 155 203 130T228 70Q228 37 203 11T143 -16Q108 -16 83 10T57 70ZM57 403Q57 437 82 462T143 488Q178 488 203 463T228 403Q228 370 203 344T143 317Q108 317 83
343T57 403Z" />
<glyph unicode=";" glyph-name="semicolon" horiz-adv-x="294" d="M43 -135Q102 -74 136 -5L55 46Q55 87 82 114T147 141Q192 141 216 116T240 43Q240 -15 192 -79T90 -177L43 -135ZM59 403Q59 437 84 462T145 488Q180 488 205 463T230 403Q230 370 205 344T145
317Q110 317 85 343T59 403Z" />
<glyph unicode="&lt;" glyph-name="less" horiz-adv-x="541" d="M39 324V391L469 622V522L163 357L469 193V93L39 324Z" />
<glyph unicode="=" glyph-name="equal" horiz-adv-x="589" d="M65 231V317H524V231H65ZM65 396V483H524V396H65Z" />
<glyph unicode="&gt;" glyph-name="greater" horiz-adv-x="541" d="M72 93V193L378 357L72 522V622L502 391V324L72 93Z" />
<glyph unicode="?" glyph-name="question" horiz-adv-x="491" d="M36 667Q45 672 62 680T131 701T236 715Q343 715 396 670T450 544Q450 470 403 415T255 285L240 192H180L165 314Q212 367 234 396T274 467T293 554Q293 600 266 631T201 663L83 550Q40 592 36
667ZM124 71Q124 105 149 130T210 156Q245 156 270 131T295 71Q295 38 270 12T210 -15Q175 -15 150 11T124 71Z" />
<glyph unicode="@" glyph-name="at" horiz-adv-x="918" d="M52 287Q52 472 182 593T507 715Q672 715 775 627T878 402Q878 269 776 184T530 99Q484 99 484 137Q484 145 486 156T490 175L493 182Q423 99 344 99Q297 99 274 132T251 221Q251 350 337 442T538 535Q628
535 703 496L620 174Q698 194 746 257T794 410Q794 516 713 583T509 650Q420 650 343 608T215 481T165 286Q165 132 263 45T508 -42Q605 -42 694 -5L714 -51Q613 -110 482 -110Q289 -110 171 -6T52 287ZM386 213Q386 175 407 175Q431 175 466 214T524 301L570 480Q560
482 550 482Q506 482 468 439T408 335T386 213Z" />
<glyph unicode="A" glyph-name="A" horiz-adv-x="732" d="M-10 0V56L88 79L327 705H414L638 79L734 56V0H395V56L466 73L423 193H213L168 76L252 56V0H-10ZM240 262H398L320 475L240 262Z" />
<glyph unicode="B" glyph-name="B" horiz-adv-x="676" d="M33 0V56L125 78V622L33 644V700H339Q456 700 525 660T594 530Q594 476 555 433T463 376V373Q546 358 595 312T644 197Q644 108 568 54T376 0H33ZM288 71H323Q478 71 478 197Q478 258 441 292T328 326H288V71ZM288
399H302Q355 399 391 431T428 521Q428 629 296 629H288V399Z" />
<glyph unicode="C" glyph-name="C" horiz-adv-x="656" d="M43 350Q43 525 136 620T410 715Q458 715 514 704T605 676V491H549L505 632Q471 638 448 638Q323 638 266 569T209 350Q209 202 263 132T431 62Q455 62 487 67L561 218H617L591 34Q556 15 502 0T393 -15Q225
-15 134 80T43 350Z" />
<glyph unicode="D" glyph-name="D" horiz-adv-x="751" d="M33 0V56L125 78V622L33 644V700H333Q515 700 611 604T708 350Q708 183 606 92T333 0H33ZM288 77H318Q427 77 484 148T542 350Q542 482 485 552T318 623H288V77Z" />
<glyph unicode="E" glyph-name="E" horiz-adv-x="630" d="M33 0V56L125 78V622L33 644V700H564V495H505L465 623H288V391L474 408V309L288 324V77H467L535 216H594L564 0H33Z" />
<glyph unicode="F" glyph-name="F" horiz-adv-x="582" d="M33 0V56L125 78V622L33 644V700H559V495H503L463 623H288V393L474 408V309L288 323V78L400 56V0H33Z" />
<glyph unicode="G" glyph-name="G" horiz-adv-x="729" d="M429 715Q534 715 624 676V491H568L522 639Q495 643 467 643Q346 643 277 568T208 350Q208 57 447 57Q462 57 476 58V248L362 283V329H713V283L639 248V34Q619 24 592 15T534 0T471 -11T409 -15Q232 -15
137 80T42 350Q42 525 142 620T429 715Z" />
<glyph unicode="H" glyph-name="H" horiz-adv-x="825" d="M33 0V56L125 78V622L33 644V700H380V644L288 622V392H537V622L445 644V700H792V644L700 622V78L792 56V0H445V56L537 78V315H288V78L380 56V0H33Z" />
<glyph unicode="I" glyph-name="I" horiz-adv-x="413" d="M33 0V56L125 78V622L33 644V700H380V644L288 622V78L380 56V0H33Z" />
<glyph unicode="J" glyph-name="J" horiz-adv-x="393" d="M4 -103Q117 -23 117 150V622L25 644V700H372V644L280 622V150Q280 45 211 -42T63 -163L4 -103Z" />
<glyph unicode="K" glyph-name="K" horiz-adv-x="761" d="M33 0V56L125 78V622L33 644V700H380V644L288 622V78L380 56V0H33ZM310 349L526 624L465 644V700H725V644L630 622L462 413L676 98L770 56V0H538L310 349Z" />
<glyph unicode="L" glyph-name="L" horiz-adv-x="604" d="M33 0V56L125 78V622L33 644V700H380V644L288 622V77H470L538 216H594L564 0H33Z" />
<glyph unicode="M" glyph-name="M" horiz-adv-x="1021" d="M16 0V56L111 79L142 623L54 644L56 700H304L510 223L724 700H966V644L877 623L912 78L1008 56V0H657V56L745 77L718 497L494 -5H429L212 500L189 77L278 56V0H16Z" />
<glyph unicode="N" glyph-name="N" horiz-adv-x="833" d="M33 0V56L125 78V622L33 644V700H205L634 230V622L542 644V700H809V644L717 622V0H620L205 454V78L297 56V0H33Z" />
<glyph unicode="O" glyph-name="O" horiz-adv-x="774" d="M42 350Q42 512 131 613T387 715Q551 715 641 615T732 350Q732 186 642 86T387 -15Q223 -15 133 84T42 350ZM387 54Q474 54 519 131T564 350Q564 491 519 568T387 646Q300 646 255 569T210 350Q210 209
254 132T387 54Z" />
<glyph unicode="P" glyph-name="P" horiz-adv-x="643" d="M33 0V56L125 78V622L33 644V700H316Q461 700 541 650T621 481Q621 421 596 377T526 307T429 269T314 256H288V78L410 56V0H33ZM288 329H309Q370 329 412 367T455 481Q455 553 416 590T316 627H288V329Z" />
<glyph unicode="Q" glyph-name="Q" horiz-adv-x="774" d="M42 350Q42 512 131 613T387 715Q551 715 641 615T732 350Q732 184 641 84Q598 37 538 13Q573 -17 622 -37Q679 -60 755 -68L718 -140Q496 -139 360 -14Q215 -7 132 84Q42 184 42 350ZM387 54Q474 54 519
131T564 350Q564 491 519 568T387 646Q300 646 255 569T210 350Q210 209 254 132T387 54Z" />
<glyph unicode="R" glyph-name="R" horiz-adv-x="714" d="M33 0V56L125 78V622L33 644V700H346Q485 700 554 650T624 506Q624 443 588 396T489 330L629 77L725 53V0H482L323 303H288V78L375 56V0H33ZM288 373H317Q387 373 424 409T461 506Q461 561 423 594T316
627H288V373Z" />
<glyph unicode="S" glyph-name="S" horiz-adv-x="603" d="M49 32V216H105L156 76Q198 61 261 61Q329 61 378 85T428 156Q428 167 426 177T417 196T405 212T387 228T366 242T340 257T278 287L242 304Q143 352 100 404T57 534Q57 616 125 665T301 715Q422 715 519
684V500H463L414 634Q373 643 335 643Q276 643 234 623T192 563Q192 528 225 505T345 443L365 434Q467 388 515 332T563 196Q563 121 526 74T427 6T288 -15Q164 -15 49 32Z" />
<glyph unicode="T" glyph-name="T" horiz-adv-x="659" d="M22 488V700H637V488H576L535 623H411V78L503 56V0H156V56L248 78V623H123L82 488H22Z" />
<glyph unicode="U" glyph-name="U" horiz-adv-x="769" d="M5 644V700H352V644L260 622V262Q260 70 419 70Q497 70 544 118T592 262V622L500 644V700H766V644L674 622V262Q674 128 594 57T390 -15Q262 -15 180 56T97 262V622L5 644Z" />
<glyph unicode="V" glyph-name="V" horiz-adv-x="713" d="M-7 644V700H339V644L257 627L408 213L545 622L466 644V700H718V644L626 622L408 -7H311L82 622L-7 644Z" />
<glyph unicode="W" glyph-name="W" horiz-adv-x="1048" d="M-10 644V700H334V644L250 626L375 260L497 700H630L778 259L875 622L794 644V700H1046V644L954 622L784 -7H687L519 499L376 -7H285L77 623L-10 644Z" />
<glyph unicode="X" glyph-name="X" horiz-adv-x="742" d="M7 0V56L99 78L287 338L102 621L10 644V700H347V644L289 631L410 447L534 624L470 644V700H716V644L624 622L453 387L662 76L747 56V0H410V56L468 67L330 275L189 76L253 56V0H7Z" />
<glyph unicode="Y" glyph-name="Y" horiz-adv-x="701" d="M-9 644V700H319V644L254 631L397 421L525 624L451 644V700H706V644L614 622L434 336V78L526 56V0H179V56L271 78V337L72 624L-9 644Z" />
<glyph unicode="Z" glyph-name="Z" horiz-adv-x="664" d="M42 0V62L402 623H151L108 480H51V700H609V638L250 77H507L577 216H632L603 0H42Z" />
<glyph unicode="[" glyph-name="bracketleft" horiz-adv-x="322" d="M82 -128V760H295V695H201V-63H295V-128H82Z" />
<glyph unicode="\" glyph-name="backslash" horiz-adv-x="462" d="M28 700H122L433 0H338L28 700Z" />
<glyph unicode="]" glyph-name="bracketright" horiz-adv-x="322" d="M27 -63H121V695H27V760H240V-128H27V-63Z" />
<glyph unicode="^" glyph-name="asciicircum" horiz-adv-x="604" d="M56 267L266 715H336L547 267H452L300 601L150 267H56Z" />
<glyph unicode="_" glyph-name="underscore" horiz-adv-x="727" d="M134 -68H593V-142H134V-68Z" />
<glyph unicode="`" glyph-name="grave" horiz-adv-x="221" d="M-107 715Q-61 757 11 767L113 594L52 564L-107 715Z" />
<glyph unicode="a" glyph-name="a" horiz-adv-x="572" d="M30 124Q30 211 101 256T333 302V332Q333 362 333 375T328 408T317 435T294 449T257 456L130 346Q62 385 62 467L92 480Q111 488 166 501T273 515Q488 515 488 343V75H566V32Q561 27 552 19T513 -2T451
-15Q375 -15 338 36Q271 -15 192 -15Q123 -15 77 20T30 124ZM191 133Q191 104 210 87T258 70Q303 70 333 103V240Q277 240 234 211T191 133Z" />
<glyph unicode="b" glyph-name="b" horiz-adv-x="608" d="M-18 709V762L142 800H221V464Q283 515 365 515Q458 515 515 454T573 269Q573 178 527 112T412 16T264 -15Q150 -15 67 36V709H-18ZM221 53Q233 51 255 51Q323 51 368 106T414 265Q414 430 313 430Q274
430 221 400V53Z" />
<glyph unicode="c" glyph-name="c" horiz-adv-x="492" d="M34 252Q34 368 110 441T291 515Q378 515 462 473Q459 390 389 351L303 450H297Q255 438 223 389T191 250Q190 150 236 100Q279 59 348 59Q377 59 404 64T461 78L473 19Q392 -15 307 -15Q194 -15 114 57T34 252Z" />
<glyph unicode="d" glyph-name="d" horiz-adv-x="634" d="M35 232Q35 367 120 441T329 515Q360 515 387 509V709H302V762L462 800H542V75H620V32Q614 27 604 19T562 -2T503 -15Q461 -15 433 5T392 48Q337 -15 257 -15Q166 -15 101 48T35 232ZM193 236Q193 154
228 112T299 70Q349 70 387 107V443Q359 450 338 450Q272 450 233 398T193 236Z" />
<glyph unicode="e" glyph-name="e" horiz-adv-x="545" d="M35 256Q35 374 101 444T282 515Q398 515 457 436T517 241H189Q196 167 242 114T360 60Q414 60 476 83L497 26Q404 -15 315 -15Q186 -15 111 60T35 256ZM189 303L358 314Q358 338 355 358T338 408Q313
450 279 450Q239 450 213 409Q198 384 193 354T189 303Z" />
<glyph unicode="f" glyph-name="f" horiz-adv-x="425" d="M27 0V53L112 73V436H28V493L112 499V574Q112 691 165 753T319 815Q361 815 407 807T478 790L503 782Q504 747 487 714T442 666L359 750Q339 750 325 744T296 721T274 667T266 574V509L403 518V436H266V73L384
53V0H27Z" />
<glyph unicode="g" glyph-name="g" horiz-adv-x="611" d="M8 -152Q8 -72 97 -25Q70 -6 54 24Q48 36 45 52T43 85L158 184Q106 207 77 246T48 334Q48 406 116 456T288 507Q378 507 444 467L600 525Q612 501 612 472Q612 438 608 421H498Q530 379 530 334Q530 260
465 211T288 161Q252 161 235 162L191 101Q203 81 224 77T295 72H368Q467 72 520 28T574 -95Q574 -172 500 -229T291 -287Q8 -287 8 -152ZM160 -130Q160 -222 288 -222Q372 -222 417 -194T462 -124Q462 -92 436 -76T341 -59H182Q160 -90 160 -130ZM288 225Q337
225 361 255T385 334Q385 382 361 413T288 445Q237 445 215 414T193 334Q193 286 215 256T288 225Z" />
<glyph unicode="h" glyph-name="h" horiz-adv-x="666" d="M15 0V53L100 73V709H15V762L175 800H254V451Q315 515 405 515Q444 515 475 504T528 471T562 421T574 358V73L659 53V0H355V53L420 73V330Q420 380 409 403T359 427Q339 427 312 417T254 383V73L319 53V0H15Z" />
<glyph unicode="i" glyph-name="i" horiz-adv-x="369" d="M30 0V53L115 73V409H30V462L190 500H269V73L354 53V0H30ZM99 654Q99 693 126 719T192 746Q232 746 258 720T285 654Q285 614 259 587T192 560Q153 560 126 587T99 654Z" />
<glyph unicode="j" glyph-name="j" horiz-adv-x="325" d="M-5 -262Q48 -217 74 -156T100 0V409H15V462L175 500H254V0Q254 -200 36 -319L-5 -262ZM84 654Q84 693 111 719T177 746Q217 746 243 720T270 654Q270 614 244 587T177 560Q138 560 111 587T84 654Z" />
<glyph unicode="k" glyph-name="k" horiz-adv-x="646" d="M15 0V53L100 73V709H15V762L175 800H254V73L319 53V0H15ZM272 241L448 432L388 447V500H623V447L532 428L417 301L558 72L638 53V0H418L272 241Z" />
<glyph unicode="l" glyph-name="l" horiz-adv-x="354" d="M15 0V53L100 73V709H15V762L175 800H254V73L339 53V0H15Z" />
<glyph unicode="m" glyph-name="m" horiz-adv-x="999" d="M30 0V53L115 73V409H30V462L190 500H269V459Q337 515 417 515Q518 515 565 443Q644 515 737 515Q815 515 861 471T908 358V73L993 53V0H689V53L754 73V345Q754 391 736 409T680 427Q638 427 586 387Q589
372 589 358V73L654 53V0H369V53L434 73V345Q434 391 416 409T361 427Q320 427 269 391V73L334 53V0H30Z" />
<glyph unicode="n" glyph-name="n" horiz-adv-x="681" d="M30 0V53L115 73V409H30V462L190 500H269V451Q330 515 420 515Q459 515 490 504T543 471T577 421T589 358V73L674 53V0H370V53L435 73V330Q435 361 432 380T420 409T399 423T365 427Q327 427 269 383V73L334
53V0H30Z" />
<glyph unicode="o" glyph-name="o" horiz-adv-x="605" d="M303 -15Q246 -15 197 5T111 60T54 144T33 251Q33 309 54 357T111 441T196 495T303 515Q360 515 409 496T494 441T551 358T572 251Q572 194 552 145T495 61T409 5T303 -15ZM194 251Q194 157 221 104T303
50Q357 50 384 103T412 251Q412 344 385 397T303 450Q249 450 222 397T194 251Z" />
<glyph unicode="p" glyph-name="p" horiz-adv-x="641" d="M15 -247L100 -227V409H15V462L175 500H254V452Q315 515 400 515Q442 515 479 499T545 451T589 373T606 269Q606 201 583 148T519 59T426 4T312 -15Q273 -15 254 -9V-227L359 -247V-300H15V-247ZM254 60Q277
50 303 50Q367 50 407 104T447 265Q447 346 419 385T342 424Q320 424 295 414T254 389V60Z" />
<glyph unicode="q" glyph-name="q" horiz-adv-x="608" d="M35 232Q35 366 127 440T344 515Q458 515 541 464V-227L626 -247V-300H281V-247L386 -227V31Q341 -15 256 -15Q216 -15 178 0T107 43T55 121T35 232ZM193 236Q193 158 228 117T314 76Q356 76 386 99V447Q370
450 353 450Q193 450 193 236Z" />
<glyph unicode="r" glyph-name="r" horiz-adv-x="467" d="M30 0V53L115 73V409H30V462L190 500H269V440Q344 515 447 515Q453 496 453 473Q453 427 443 387L317 408Q293 397 269 376V73L374 53V0H30Z" />
<glyph unicode="s" glyph-name="s" horiz-adv-x="481" d="M42 8V151H98L134 52Q170 50 191 50Q308 50 308 101Q308 122 287 137T247 162T175 194Q106 224 75 262T43 362Q43 437 103 476T262 515Q351 515 415 496V360H363L332 448Q302 453 272 453Q176 453 176
406Q176 394 185 381T217 355T292 320Q383 279 415 241T447 137Q447 63 386 24T224 -15Q129 -15 42 8Z" />
<glyph unicode="t" glyph-name="t" horiz-adv-x="378" d="M28 430V470L198 591H235V495L359 500V430H235V144Q235 95 246 75T291 55Q316 55 358 73L374 17Q314 -15 247 -15Q81 -15 81 139V430H28Z" />
<glyph unicode="u" glyph-name="u" horiz-adv-x="667" d="M9 447V500H248V155Q248 104 260 85T311 65Q340 65 371 80T421 120V427L356 447V500H576V75H654V32Q632 17 619 11T589 -2T555 -12T522 -15Q450 -15 421 50Q350 -15 247 -15Q94 -15 94 142V427L9 447Z" />
<glyph unicode="v" glyph-name="v" horiz-adv-x="580" d="M-4 447V500H302V447L234 431L335 192L434 430L368 447V500H585V447L501 425L323 -7H253L68 426L-4 447Z" />
<glyph unicode="w" glyph-name="w" horiz-adv-x="831" d="M-3 447V500H299V447L228 429L310 209L408 500H510L613 213L687 429L607 447V500H834V447L753 425L609 -7H527L413 312L306 -7H224L64 429L-3 447Z" />
<glyph unicode="x" glyph-name="x" horiz-adv-x="615" d="M9 0V53L96 70L229 228L101 430L22 447V500H337V447L285 437L350 336L430 431L375 447V500H599V447L512 428L386 279L520 68L602 53V0H279V53L333 61L265 171L177 67L230 53V0H9Z" />
<glyph unicode="y" glyph-name="y" horiz-adv-x="613" d="M-5 447V500H304V447L238 435L367 178L461 428L385 447V500H617V447L534 424L255 -299H237Q207 -299 181 -286T143 -254L288 -23L70 426L-5 447Z" />
<glyph unicode="z" glyph-name="z" horiz-adv-x="509" d="M28 0V50L281 436H145L97 335H51L62 500H470V451L219 65H369L421 176H470L460 0H28Z" />
<glyph unicode="{" glyph-name="braceleft" horiz-adv-x="374" d="M-31 288V345Q25 348 56 371T87 450V617Q87 686 123 723T231 760H318V702H288Q245 702 226 676T206 597V441Q206 336 134 318V317Q206 298 206 193V35Q206 -70 288 -70H318V-128H231Q162 -128
125 -89T87 16V182Q87 240 57 262T-31 288Z" />
<glyph unicode="|" glyph-name="bar" horiz-adv-x="257" d="M81 -240V760H176V-240H81Z" />
<glyph unicode="}" glyph-name="braceright" horiz-adv-x="374" d="M405 288Q348 285 318 263T287 182V16Q287 -50 250 -89T143 -128H56V-70H86Q168 -70 168 35V193Q168 298 240 317V318Q168 336 168 441V597Q168 650 149 676T86 702H56V760H143Q214 760 250 723T287
617V450Q287 394 318 371T405 345V288Z" />
<glyph unicode="~" glyph-name="asciitilde" horiz-adv-x="549" d="M44 282Q62 444 179 444Q221 444 282 409T372 373Q424 373 433 444L512 432Q503 364 466 317T368 269Q326 269 265 304T175 340Q153 340 140 327T123 269L44 282Z" />
<glyph unicode="&#xa1;" glyph-name="exclamdown" horiz-adv-x="280" d="M56 429Q56 395 81 370T142 344Q177 344 202 369T227 429Q227 462 202 488T142 515Q107 515 82 489T56 429ZM67 -200H215L195 292H87L67 -200Z" />
<glyph unicode="&#xa2;" glyph-name="cent" horiz-adv-x="527" d="M261 511V648H334V514Q370 512 408 502T480 473Q480 441 466 406T422 348L335 450V450H334V60Q370 59 402 63T469 78L481 19Q407 -12 334 -15V-140H261V-10Q213 -3 173 18T103 73T58 150T42 250Q42
304 57 349T102 427T171 482T261 511ZM199 250Q199 129 261 85V431Q199 392 199 250Z" />
<glyph unicode="&#xa3;" glyph-name="sterling" horiz-adv-x="565" d="M52 0V55Q181 151 181 267Q181 294 167 333H59V390L137 395L105 452Q101 459 86 494T70 564Q70 641 137 678T294 715Q409 715 506 665Q504 632 488 596T445 538L331 656Q278 656 258 623T237
545Q237 493 277 405L415 415L405 333H305Q314 304 314 274Q314 200 234 127H428L466 205H520L492 0H52Z" />
<glyph unicode="&#xa4;" glyph-name="currency" horiz-adv-x="612" d="M58 176L128 246Q95 295 95 359Q95 417 127 470L58 540L125 606L194 538Q243 569 306 569Q367 569 418 536L487 605L554 539L485 470Q517 414 517 359Q517 298 483 246L553 178L487 111L418
179Q366 148 306 148Q243 148 194 179L124 109L58 176ZM188 359Q188 334 197 313T222 275T259 250T306 241Q330 241 351 250T389 276T414 313T424 359Q424 383 415 404T389 441T351 466T306 476Q282 476 261 467T223 442T198 405T188 359Z" />
<glyph unicode="&#xa5;" glyph-name="yen" horiz-adv-x="782" d="M34 644V700H361V644L296 631L440 421L567 624L494 644V700H749V644L656 622L504 379L632 386L623 304H477V262L632 270L623 188H477V78L568 56V0H222V56L314 78V188H147V245L314 253V304H147V361L292
368L114 624L34 644Z" />
<glyph unicode="&#xa6;" glyph-name="brokenbar" horiz-adv-x="243" d="M84 160H159V-240H84V160ZM84 360V760H159V360H84Z" />
<glyph unicode="&#xa7;" glyph-name="section" horiz-adv-x="536" d="M55 346Q55 428 141 475Q57 530 57 606Q57 674 118 716T266 759Q368 759 443 733V576H393L352 688Q315 695 298 695Q246 695 223 677T199 631Q199 564 291 528Q325 515 347 505T398 476T445
440T475 393T488 333Q488 294 467 258T414 197Q485 145 485 72Q485 -2 418 -42T255 -83Q150 -83 68 -43V113H118L161 -4Q199 -16 222 -16Q335 -16 335 62Q335 94 314 115T234 162Q139 202 97 243T55 346ZM147 372Q147 351 156 335T187 305T226 284T275 264Q342
237 360 228Q387 258 387 298Q387 341 354 368T251 423Q215 437 196 446Q147 415 147 372Z" />
<glyph unicode="&#xa8;" glyph-name="dieresis" horiz-adv-x="425" d="M32 689Q32 722 55 744T111 767Q146 767 168 745T191 689Q191 654 169 631T111 608Q78 608 55 631T32 689ZM232 689Q232 722 255 744T311 767Q346 767 368 745T391 689Q391 654 369 631T311
608Q278 608 255 631T232 689Z" />
<glyph unicode="&#xa9;" glyph-name="copyright" horiz-adv-x="829" d="M415 725Q490 725 557 696T674 616T753 499T782 357Q782 282 753 216T675 99T558 20T415 -10Q339 -10 272 19T155 98T76 214T47 357Q47 433 76 500T155 617T272 696T415 725ZM415 55Q478
55 533 79T629 144T693 240T717 357Q717 420 694 475T629 571T533 636T415 660Q353 660 298 636T202 571T137 474T113 357Q113 295 137 240T202 144T298 79T415 55ZM217 357Q217 463 273 519T438 576Q503 576 554 553V442H507L483 519Q475 520 470 520T460 521Q328
521 328 357Q328 193 457 193H474L515 278H562L546 167Q491 138 427 138Q327 138 272 195T217 357Z" />
<glyph unicode="&#xaa;" glyph-name="ordfeminine" horiz-adv-x="402" d="M38 479Q38 530 85 558T220 586V604Q220 632 218 645T207 667T180 677L105 611Q62 634 62 686Q119 714 189 714Q256 714 289 687T323 611V451H370V424Q342 396 296 396Q251 396 228 427Q188
396 133 396Q92 396 65 417T38 479ZM145 485Q145 468 154 459T180 450Q204 450 220 467V547Q190 544 168 528T145 485Z" />
<glyph unicode="&#xab;" glyph-name="guillemotleft" horiz-adv-x="491" d="M43 254V286L196 460H261L190 270L261 80H196L43 254ZM250 256V284L367 441H425L381 270L425 99H367L250 256Z" />
<glyph unicode="&#xac;" glyph-name="logicalnot" horiz-adv-x="560" d="M52 316V399H491V123H406V316H52Z" />
<glyph unicode="&#xad;" glyph-name="uni00AD" horiz-adv-x="364" d="M52 307V407H312V307H52Z" />
<glyph unicode="&#xae;" glyph-name="registered" horiz-adv-x="829" d="M415 725Q490 725 557 696T674 616T753 499T782 357Q782 282 753 216T675 99T558 20T415 -10Q339 -10 272 19T155 98T76 214T47 357Q47 433 76 500T155 617T272 696T415 725ZM201 571Q112
482 112 357Q112 295 136 240T201 144T297 79T415 55Q477 55 532 79T628 144T692 240T716 357Q716 419 692 474T627 570T532 636T415 660Q290 660 201 571ZM220 150V184L276 197V523L220 536V570H408Q575 570 575 454Q575 376 489 340L567 196L615 181V150H487L394
332H374V197L429 184V150H220ZM374 374H390Q432 374 453 395T475 454Q475 486 454 506T390 526H374V374Z" />
<glyph unicode="&#xaf;" glyph-name="overscore" horiz-adv-x="459" d="M0 617V700H459V617H0Z" />
<glyph unicode="&#xb0;" glyph-name="degree" horiz-adv-x="374" d="M78 500Q34 546 34 609Q34 641 46 669T79 717T128 750T187 762Q218 762 246 750T295 718T328 669T341 609Q341 577 329 549T296 500T247 467T187 455Q123 455 78 500ZM113 609Q113 578 135 556T187
534Q218 534 240 556T262 609Q262 639 240 661T187 683Q157 683 135 661T113 609Z" />
<glyph unicode="&#xb1;" glyph-name="plusminus" horiz-adv-x="556" d="M53 0V87H502V0H53ZM53 313V399H229V585H315V399H502V313H315V127H229V313H53Z" />
<glyph unicode="&#xb2;" glyph-name="twosuperior" horiz-adv-x="380" d="M44 285V327Q61 343 92 379T164 483T204 603Q204 634 194 654T162 675L92 595Q52 632 48 680Q105 710 184 710Q240 710 276 686T313 611Q313 551 268 493T152 371H281L304 417H336L319 285H44Z" />
<glyph unicode="&#xb3;" glyph-name="threesuperior" horiz-adv-x="373" d="M34 300L47 340Q90 324 131 324Q173 324 199 346T226 401Q226 441 198 462T125 484V522Q160 528 182 551T204 609Q204 637 191 654T158 676L92 609Q76 621 64 643T51 681Q106 710 174
710Q245 710 279 684T313 614Q313 575 286 547T213 510Q335 496 335 399Q335 339 285 308T155 276Q90 276 34 300Z" />
<glyph unicode="&#xb4;" glyph-name="acute" horiz-adv-x="254" d="M78 591L179 767Q251 755 297 715L138 564L78 591Z" />
<glyph unicode="&#xb5;" glyph-name="mu" horiz-adv-x="675" d="M90 -192V500H244V159Q244 109 260 87T320 65Q367 65 410 102V500H564V153Q564 107 584 91T630 74H642V32Q637 27 628 19T587 -2T518 -15Q441 -15 414 41Q362 -15 283 -15Q213 -15 176 32Q176 -105
260 -217Q204 -250 143 -250Q90 -250 90 -192Z" />
<glyph unicode="&#xb6;" glyph-name="paragraph" horiz-adv-x="662" d="M36 582Q36 760 261 760H617V707L532 687V-112H440V682H361V-112H269V386H259Q36 386 36 582Z" />
<glyph unicode="&#xb7;" glyph-name="middot" horiz-adv-x="268" d="M45 300Q45 335 71 361T135 388Q171 388 197 362T223 300Q223 265 197 238T135 210Q98 210 72 237T45 300Z" />
<glyph unicode="&#xb8;" glyph-name="cedilla" horiz-adv-x="363" d="M60 -163Q100 -171 110 -171Q139 -171 156 -158T174 -123Q174 -95 157 -83T106 -69L127 9H189L179 -34Q233 -34 266 -59T299 -126Q299 -180 256 -210T137 -240Q115 -240 60 -229V-163Z" />
<glyph unicode="&#xb9;" glyph-name="onesuperior" horiz-adv-x="313" d="M39 644L165 710H226V326L277 317V285H52V317L120 329V644L49 613L39 644Z" />
<glyph unicode="&#xba;" glyph-name="ordmasculine" horiz-adv-x="393" d="M37 556Q37 626 77 670T196 715Q275 715 315 671T356 556Q356 484 316 439T196 394Q118 394 78 439T37 556ZM142 556Q142 436 196 436Q251 436 251 556Q251 674 196 674Q142 674 142 556Z" />
<glyph unicode="&#xbb;" glyph-name="guillemotright" horiz-adv-x="492" d="M296 80H231L302 270L231 460H296L449 286V254L296 80ZM125 99H67L111 270L67 441H125L242 284V256L125 99Z" />
<glyph unicode="&#xbc;" glyph-name="onequarter" horiz-adv-x="816" d="M41 644L167 710H228V326L279 317V285H54V317L122 329V644L51 613L41 644ZM449 86V120L675 425H727V132H773V86H727V1H627V86H449ZM627 137V268L528 137H627ZM301 0H220L577 714H657L301 0Z" />
<glyph unicode="&#xbd;" glyph-name="onehalf" horiz-adv-x="885" d="M42 644L168 710H229V326L280 317V285H55V317L123 329V644L52 613L42 644ZM552 1V43Q569 59 600 95T672 199T712 319Q712 350 702 370T670 391L600 311Q560 348 556 396Q613 426 692 426Q748
426 784 402T821 327Q821 267 776 209T660 87H789L812 133H844L827 1H552ZM302 0H221L578 714H658L302 0Z" />
<glyph unicode="&#xbe;" glyph-name="threequarters" horiz-adv-x="846" d="M478 86V120L704 425H756V132H802V86H756V1H656V86H478ZM656 137V268L557 137H656ZM40 300L53 340Q96 324 137 324Q179 324 205 346T232 401Q232 441 204 462T131 484V522Q166 528 188
551T210 609Q210 637 197 654T164 676L98 609Q82 621 70 643T57 681Q112 710 180 710Q251 710 285 684T319 614Q319 575 292 547T219 510Q341 496 341 399Q341 339 291 308T161 276Q96 276 40 300ZM330 0H249L606 714H686L330 0Z" />
<glyph unicode="&#xbf;" glyph-name="questiondown" horiz-adv-x="485" d="M452 -167Q443 -172 426 -180T357 -201T252 -215Q145 -215 92 -170T38 -44Q38 30 85 85T233 215L248 308H308L323 186Q276 133 254 104T214 33T195 -54Q195 -100 222 -131T287 -163L405
-50Q448 -92 452 -167ZM364 429Q364 395 339 370T278 344Q243 344 218 369T193 429Q193 462 218 488T278 515Q313 515 338 489T364 429Z" />
<glyph unicode="&#xc0;" glyph-name="Agrave" horiz-adv-x="732" d="M-10 0V56L88 79L327 705H414L638 79L734 56V0H395V56L466 73L423 193H213L168 76L252 56V0H-10ZM240 262H398L320 475L240 262ZM206 829Q222 863 249 889T301 924L444 796L405 748L206 829Z" />
<glyph unicode="&#xc1;" glyph-name="Aacute" horiz-adv-x="732" d="M-10 0V56L88 79L327 705H414L638 79L734 56V0H395V56L466 73L423 193H213L168 76L252 56V0H-10ZM240 262H398L320 475L240 262ZM286 797L434 925Q460 917 488 889T529 830L325 749L286 797Z" />
<glyph unicode="&#xc2;" glyph-name="Acircumflex" horiz-adv-x="732" d="M-10 0V56L88 79L327 705H414L638 79L734 56V0H395V56L466 73L423 193H213L168 76L252 56V0H-10ZM240 262H398L320 475L240 262ZM191 788L316 909H425L551 788L483 764L370 827L258 764L191 788Z" />
<glyph unicode="&#xc3;" glyph-name="Atilde" horiz-adv-x="732" d="M-10 0V56L88 79L327 705H414L638 79L734 56V0H395V56L466 73L423 193H213L168 76L252 56V0H-10ZM240 262H398L320 475L240 262ZM150 822Q181 862 218 884T293 906Q325 906 367 879T439 852Q479
852 534 896L571 857Q553 823 513 793T423 762Q391 762 349 789T278 816Q255 816 232 804T186 779L150 822Z" />
<glyph unicode="&#xc4;" glyph-name="Adieresis" horiz-adv-x="732" d="M-10 0V56L88 79L327 705H414L638 79L734 56V0H395V56L466 73L423 193H213L168 76L252 56V0H-10ZM240 262H398L320 475L240 262ZM181 842Q181 875 204 897T260 920Q295 920 317 898T340 842Q340
807 318 784T260 761Q227 761 204 784T181 842ZM401 842Q401 875 424 897T480 920Q515 920 537 898T560 842Q560 807 538 784T480 761Q447 761 424 784T401 842Z" />
<glyph unicode="&#xc5;" glyph-name="Aring" horiz-adv-x="732" d="M249 813Q249 837 258 859T284 897T322 922T368 932Q392 932 414 923T452 897T477 859T487 813Q487 788 478 767T452 729T415 702L638 79L734 56V0H395V56L466 73L423 193H213L168 76L252 56V0H-10V56L88
79L325 700L321 702Q300 712 284 728T259 766T249 813ZM240 262H398L320 475L240 262ZM411 813Q411 829 398 842T368 856Q351 856 338 843T325 813Q325 796 338 783T368 770Q385 770 398 783T411 813Z" />
<glyph unicode="&#xc6;" glyph-name="AE" horiz-adv-x="1030" d="M-14 0V56L78 78L510 700H964V495H908L868 623H673V388L874 408V309L673 327V77H870L938 216H994L964 0H418V56L510 78V227H281L179 77L268 56V0H-14ZM332 301H510V561L332 301Z" />
<glyph unicode="&#xc7;" glyph-name="Ccedilla" horiz-adv-x="656" d="M209 -163Q249 -171 259 -171Q288 -171 305 -158T323 -123Q323 -95 306 -83T255 -69L273 0Q189 22 134 80Q43 176 43 350Q43 525 136 620T410 715Q458 715 514 704T605 676V491H549L505 632Q471
638 448 638Q323 638 266 569T209 350Q209 202 263 132T431 62Q455 62 487 67L561 218H617L591 34Q556 15 502 0T393 -15Q361 -15 333 -11L328 -34Q382 -34 415 -59T448 -126Q448 -180 405 -210T286 -240Q264 -240 209 -229V-163Z" />
<glyph unicode="&#xc8;" glyph-name="Egrave" horiz-adv-x="630" d="M33 0V56L125 78V622L33 644V700H564V495H505L465 623H288V391L474 408V309L288 324V77H467L535 216H594L564 0H33ZM190 829Q206 863 233 889T285 924L428 796L389 748L190 829Z" />
<glyph unicode="&#xc9;" glyph-name="Eacute" horiz-adv-x="630" d="M33 0V56L125 78V622L33 644V700H564V495H505L465 623H288V391L474 408V309L288 324V77H467L535 216H594L564 0H33ZM280 797L428 925Q454 917 482 889T523 830L319 749L280 797Z" />
<glyph unicode="&#xca;" glyph-name="Ecircumflex" horiz-adv-x="630" d="M33 0V56L125 78V622L33 644V700H564V495H505L465 623H288V391L474 408V309L288 324V77H467L535 216H594L564 0H33ZM185 788L310 909H419L545 788L477 764L364 827L252 764L185 788Z" />
<glyph unicode="&#xcb;" glyph-name="Edieresis" horiz-adv-x="630" d="M33 0V56L125 78V622L33 644V700H564V495H505L465 623H288V391L474 408V309L288 324V77H467L535 216H594L564 0H33ZM155 842Q155 875 178 897T234 920Q269 920 291 898T314 842Q314 807 292
784T234 761Q201 761 178 784T155 842ZM375 842Q375 875 398 897T454 920Q489 920 511 898T534 842Q534 807 512 784T454 761Q421 761 398 784T375 842Z" />
<glyph unicode="&#xcc;" glyph-name="Igrave" horiz-adv-x="413" d="M33 0V56L125 78V622L33 644V700H380V644L288 622V78L380 56V0H33ZM64 829Q80 863 107 889T159 924L302 796L263 748L64 829Z" />
<glyph unicode="&#xcd;" glyph-name="Iacute" horiz-adv-x="413" d="M33 0V56L125 78V622L33 644V700H380V644L288 622V78L380 56V0H33ZM124 797L272 925Q298 917 326 889T367 830L163 749L124 797Z" />
<glyph unicode="&#xce;" glyph-name="Icircumflex" horiz-adv-x="413" d="M33 0V56L125 78V622L33 644V700H380V644L288 622V78L380 56V0H33ZM29 788L154 909H263L389 788L321 764L208 827L96 764L29 788Z" />
<glyph unicode="&#xcf;" glyph-name="Idieresis" horiz-adv-x="413" d="M33 0V56L125 78V622L33 644V700H380V644L288 622V78L380 56V0H33ZM276 842Q276 875 299 897T355 920Q390 920 412 898T435 842Q435 807 413 784T355 761Q322 761 299 784T276 842ZM496 842Q496
875 519 897T575 920Q610 920 632 898T655 842Q655 807 633 784T575 761Q542 761 519 784T496 842Z" />
<glyph unicode="&#xd0;" glyph-name="Eth" horiz-adv-x="751" d="M33 0V56L125 78V313H33V390H125V622L33 644V700H333Q515 700 611 603T708 350Q708 194 612 97T333 0H33ZM288 77H318Q431 77 486 150T542 350Q542 477 486 550T318 623H288V390H451V313H288V77Z" />
<glyph unicode="&#xd1;" glyph-name="Ntilde" horiz-adv-x="833" d="M33 0V56L125 78V622L33 644V700H205L634 230V622L542 644V700H809V644L717 622V0H620L205 454V78L297 56V0H33ZM212 822Q243 862 280 884T355 906Q387 906 429 879T501 852Q541 852 596 896L633
857Q615 823 575 793T485 762Q453 762 411 789T340 816Q317 816 294 804T248 779L212 822Z" />
<glyph unicode="&#xd2;" glyph-name="Ograve" horiz-adv-x="774" d="M42 350Q42 512 131 613T387 715Q551 715 641 615T732 350Q732 186 642 86T387 -15Q223 -15 133 84T42 350ZM387 54Q474 54 519 131T564 350Q564 491 519 568T387 646Q300 646 255 569T210 350Q210
209 254 132T387 54ZM222 829Q238 863 265 889T317 924L460 796L421 748L222 829Z" />
<glyph unicode="&#xd3;" glyph-name="Oacute" horiz-adv-x="774" d="M42 350Q42 512 131 613T387 715Q551 715 641 615T732 350Q732 186 642 86T387 -15Q223 -15 133 84T42 350ZM387 54Q474 54 519 131T564 350Q564 491 519 568T387 646Q300 646 255 569T210 350Q210
209 254 132T387 54ZM342 797L490 925Q516 917 544 889T585 830L381 749L342 797Z" />
<glyph unicode="&#xd4;" glyph-name="Ocircumflex" horiz-adv-x="774" d="M42 350Q42 512 131 613T387 715Q551 715 641 615T732 350Q732 186 642 86T387 -15Q223 -15 133 84T42 350ZM387 54Q474 54 519 131T564 350Q564 491 519 568T387 646Q300 646 255 569T210
350Q210 209 254 132T387 54ZM207 788L332 909H441L567 788L499 764L386 827L274 764L207 788Z" />
<glyph unicode="&#xd5;" glyph-name="Otilde" horiz-adv-x="774" d="M42 350Q42 512 131 613T387 715Q551 715 641 615T732 350Q732 186 642 86T387 -15Q223 -15 133 84T42 350ZM387 54Q474 54 519 131T564 350Q564 491 519 568T387 646Q300 646 255 569T210 350Q210
209 254 132T387 54ZM166 822Q197 862 234 884T309 906Q341 906 383 879T455 852Q495 852 550 896L587 857Q569 823 529 793T439 762Q407 762 365 789T294 816Q271 816 248 804T202 779L166 822Z" />
<glyph unicode="&#xd6;" glyph-name="Odieresis" horiz-adv-x="774" d="M42 350Q42 512 131 613T387 715Q551 715 641 615T732 350Q732 186 642 86T387 -15Q223 -15 133 84T42 350ZM387 54Q474 54 519 131T564 350Q564 491 519 568T387 646Q300 646 255 569T210
350Q210 209 254 132T387 54ZM197 842Q197 875 220 897T276 920Q311 920 333 898T356 842Q356 807 334 784T276 761Q243 761 220 784T197 842ZM417 842Q417 875 440 897T496 920Q531 920 553 898T576 842Q576 807 554 784T496 761Q463 761 440 784T417 842Z" />
<glyph unicode="&#xd7;" glyph-name="multiply" horiz-adv-x="545" d="M50 518L111 579L272 418L433 579L494 518L333 357L494 195L434 135L273 296L112 136L51 197L211 357L50 518Z" />
<glyph unicode="&#xd8;" glyph-name="Oslash" horiz-adv-x="774" d="M130 -40L175 46Q152 63 132 84Q42 184 42 350Q42 512 131 613T387 715Q460 715 518 695L541 739H612L575 669Q612 647 641 615Q732 515 732 350Q732 186 642 86T387 -15Q298 -15 231 14L203
-40H130ZM387 54Q474 54 519 131T564 350Q564 487 520 564L277 100Q319 54 387 54ZM387 646Q300 646 255 569T210 350Q210 237 238 165L476 617Q439 646 387 646Z" />
<glyph unicode="&#xd9;" glyph-name="Ugrave" horiz-adv-x="769" d="M5 644V700H352V644L260 622V262Q260 70 419 70Q497 70 544 118T592 262V622L500 644V700H766V644L674 622V262Q674 128 594 57T390 -15Q262 -15 180 56T97 262V622L5 644ZM286 829Q302 863
329 889T381 924L524 796L485 748L286 829Z" />
<glyph unicode="&#xda;" glyph-name="Uacute" horiz-adv-x="769" d="M5 644V700H352V644L260 622V262Q260 70 419 70Q497 70 544 118T592 262V622L500 644V700H766V644L674 622V262Q674 128 594 57T390 -15Q262 -15 180 56T97 262V622L5 644ZM346 797L494 925Q520
917 548 889T589 830L385 749L346 797Z" />
<glyph unicode="&#xdb;" glyph-name="Ucircumflex" horiz-adv-x="769" d="M5 644V700H352V644L260 622V262Q260 70 419 70Q497 70 544 118T592 262V622L500 644V700H766V644L674 622V262Q674 128 594 57T390 -15Q262 -15 180 56T97 262V622L5 644ZM251 788L376
909H485L611 788L543 764L430 827L318 764L251 788Z" />
<glyph unicode="&#xdc;" glyph-name="Udieresis" horiz-adv-x="769" d="M5 644V700H352V644L260 622V262Q260 70 419 70Q497 70 544 118T592 262V622L500 644V700H766V644L674 622V262Q674 128 594 57T390 -15Q262 -15 180 56T97 262V622L5 644ZM241 842Q241 875
264 897T320 920Q355 920 377 898T400 842Q400 807 378 784T320 761Q287 761 264 784T241 842ZM461 842Q461 875 484 897T540 920Q575 920 597 898T620 842Q620 807 598 784T540 761Q507 761 484 784T461 842Z" />
<glyph unicode="&#xdd;" glyph-name="Yacute" horiz-adv-x="701" d="M-9 644V700H319V644L254 631L397 421L525 624L451 644V700H706V644L614 622L434 336V78L526 56V0H179V56L271 78V337L72 624L-9 644ZM307 797L455 925Q481 917 509 889T550 830L346 749L307 797Z" />
<glyph unicode="&#xde;" glyph-name="Thorn" horiz-adv-x="646" d="M33 0V56L125 78V622L33 644V700H380V644L288 622V551H346Q479 551 551 501T624 350Q624 248 552 198T346 147H288V78L380 56V0H33ZM288 217H301Q458 217 458 350Q458 420 418 449T301 478H288V217Z" />
<glyph unicode="&#xdf;" glyph-name="germandbls" horiz-adv-x="711" d="M15 0V53L100 73V538Q100 644 169 702T356 760Q479 760 542 704T606 538V466H493Q395 466 395 413Q395 385 426 360T533 307Q620 274 656 236T693 135Q693 64 629 25T462 -15Q387 -15 312
8V151H368L410 52Q421 50 427 50Q482 50 519 67T556 116Q556 130 550 141T527 161T498 176T416 208Q281 264 281 373Q281 437 328 478T453 529V553Q453 630 429 662T356 695Q254 695 254 538V0H15Z" />
<glyph unicode="&#xe0;" glyph-name="agrave" horiz-adv-x="572" d="M30 124Q30 211 101 256T333 302V332Q333 362 333 375T328 408T317 435T294 449T257 456L130 346Q62 385 62 467L92 480Q111 488 166 501T273 515Q488 515 488 343V75H566V32Q561 27 552 19T513
-2T451 -15Q375 -15 338 36Q271 -15 192 -15Q123 -15 77 20T30 124ZM191 133Q191 104 210 87T258 70Q303 70 333 103V240Q277 240 234 211T191 133ZM123 715Q169 757 241 767L343 594L282 564L123 715Z" />
<glyph unicode="&#xe1;" glyph-name="aacute" horiz-adv-x="572" d="M30 124Q30 211 101 256T333 302V332Q333 362 333 375T328 408T317 435T294 449T257 456L130 346Q62 385 62 467L92 480Q111 488 166 501T273 515Q488 515 488 343V75H566V32Q561 27 552 19T513
-2T451 -15Q375 -15 338 36Q271 -15 192 -15Q123 -15 77 20T30 124ZM191 133Q191 104 210 87T258 70Q303 70 333 103V240Q277 240 234 211T191 133ZM250 591L351 767Q423 755 469 715L310 564L250 591Z" />
<glyph unicode="&#xe2;" glyph-name="acircumflex" horiz-adv-x="572" d="M30 124Q30 211 101 256T333 302V332Q333 362 333 375T328 408T317 435T294 449T257 456L130 346Q62 385 62 467L92 480Q111 488 166 501T273 515Q488 515 488 343V75H566V32Q561 27 552
19T513 -2T451 -15Q375 -15 338 36Q271 -15 192 -15Q123 -15 77 20T30 124ZM191 133Q191 104 210 87T258 70Q303 70 333 103V240Q277 240 234 211T191 133ZM118 586L233 766H342L459 586L391 562L288 687L186 562L118 586Z" />
<glyph unicode="&#xe3;" glyph-name="atilde" horiz-adv-x="572" d="M30 124Q30 211 101 256T333 302V332Q333 362 333 375T328 408T317 435T294 449T257 456L130 346Q62 385 62 467L92 480Q111 488 166 501T273 515Q488 515 488 343V75H566V32Q561 27 552 19T513
-2T451 -15Q375 -15 338 36Q271 -15 192 -15Q123 -15 77 20T30 124ZM191 133Q191 104 210 87T258 70Q303 70 333 103V240Q277 240 234 211T191 133ZM78 663Q109 703 146 725T221 747Q253 747 295 720T367 693Q407 693 462 737L499 698Q481 664 441 634T351 603Q319
603 277 630T206 657Q183 657 160 645T114 620L78 663Z" />
<glyph unicode="&#xe4;" glyph-name="adieresis" horiz-adv-x="572" d="M30 124Q30 211 101 256T333 302V332Q333 362 333 375T328 408T317 435T294 449T257 456L130 346Q62 385 62 467L92 480Q111 488 166 501T273 515Q488 515 488 343V75H566V32Q561 27 552
19T513 -2T451 -15Q375 -15 338 36Q271 -15 192 -15Q123 -15 77 20T30 124ZM191 133Q191 104 210 87T258 70Q303 70 333 103V240Q277 240 234 211T191 133ZM108 689Q108 722 131 744T187 767Q222 767 244 745T267 689Q267 654 245 631T187 608Q154 608 131 631T108
689ZM308 689Q308 722 331 744T387 767Q422 767 444 745T467 689Q467 654 445 631T387 608Q354 608 331 631T308 689Z" />
<glyph unicode="&#xe5;" glyph-name="aring" horiz-adv-x="572" d="M30 124Q30 211 101 256T333 302V332Q333 362 333 375T328 408T317 435T294 449T257 456L130 346Q62 385 62 467L92 480Q111 488 166 501T273 515Q488 515 488 343V75H566V32Q561 27 552 19T513
-2T451 -15Q375 -15 338 36Q271 -15 192 -15Q123 -15 77 20T30 124ZM191 133Q191 104 210 87T258 70Q303 70 333 103V240Q277 240 234 211T191 133ZM169 686Q169 710 178 732T204 770T242 795T288 805Q312 805 334 796T372 770T397 732T407 686Q407 661 398 640T372
602T335 576T288 566Q263 566 242 575T204 601T179 639T169 686ZM331 686Q331 702 318 715T288 729Q271 729 258 716T245 686Q245 669 258 656T288 643Q305 643 318 656T331 686Z" />
<glyph unicode="&#xe6;" glyph-name="ae" horiz-adv-x="842" d="M31 124Q31 211 102 256T334 302V332Q334 362 334 375T329 408T318 435T295 449T258 456L131 346Q62 386 62 467L92 480Q111 488 166 501T274 515Q382 515 434 450Q499 515 594 515Q673 515 724
475T794 376T814 241H490Q496 162 541 111T657 60Q710 60 772 83L787 26Q694 -15 612 -15Q554 -15 494 8T400 87Q361 41 307 13T193 -15Q124 -15 78 20T31 124ZM192 133Q192 104 211 87T259 70Q304 70 334 103V240Q278 240 235 211T192 133ZM490 298L656 311Q656
340 655 359T647 402T627 438T589 450Q547 450 519 403T490 298Z" />
<glyph unicode="&#xe7;" glyph-name="ccedilla" horiz-adv-x="492" d="M136 -163Q176 -171 186 -171Q215 -171 232 -158T250 -123Q250 -95 233 -83T182 -69L201 4Q154 21 114 57Q34 129 34 252Q34 368 110 441T291 515Q378 515 462 473Q459 390 389 351L303 450H297Q255
438 223 389T191 250Q190 150 236 100Q279 59 348 59Q377 59 404 64T461 78L473 19Q392 -15 307 -15Q283 -15 260 -12L255 -34Q309 -34 342 -59T375 -126Q375 -180 332 -210T213 -240Q191 -240 136 -229V-163Z" />
<glyph unicode="&#xe8;" glyph-name="egrave" horiz-adv-x="545" d="M35 256Q35 374 101 444T282 515Q398 515 457 436T517 241H189Q196 167 242 114T360 60Q414 60 476 83L497 26Q404 -15 315 -15Q186 -15 111 60T35 256ZM189 303L358 314Q358 338 355 358T338
408Q313 450 279 450Q239 450 213 409Q198 384 193 354T189 303ZM117 715Q163 757 235 767L337 594L276 564L117 715Z" />
<glyph unicode="&#xe9;" glyph-name="eacute" horiz-adv-x="545" d="M35 256Q35 374 101 444T282 515Q398 515 457 436T517 241H189Q196 167 242 114T360 60Q414 60 476 83L497 26Q404 -15 315 -15Q186 -15 111 60T35 256ZM189 303L358 314Q358 338 355 358T338
408Q313 450 279 450Q239 450 213 409Q198 384 193 354T189 303ZM244 591L345 767Q417 755 463 715L304 564L244 591Z" />
<glyph unicode="&#xea;" glyph-name="ecircumflex" horiz-adv-x="545" d="M35 256Q35 374 101 444T282 515Q398 515 457 436T517 241H189Q196 167 242 114T360 60Q414 60 476 83L497 26Q404 -15 315 -15Q186 -15 111 60T35 256ZM189 303L358 314Q358 338 355 358T338
408Q313 450 279 450Q239 450 213 409Q198 384 193 354T189 303ZM112 586L227 766H336L453 586L385 562L282 687L180 562L112 586Z" />
<glyph unicode="&#xeb;" glyph-name="edieresis" horiz-adv-x="545" d="M35 256Q35 374 101 444T282 515Q398 515 457 436T517 241H189Q196 167 242 114T360 60Q414 60 476 83L497 26Q404 -15 315 -15Q186 -15 111 60T35 256ZM189 303L358 314Q358 338 355 358T338
408Q313 450 279 450Q239 450 213 409Q198 384 193 354T189 303ZM102 689Q102 722 125 744T181 767Q216 767 238 745T261 689Q261 654 239 631T181 608Q148 608 125 631T102 689ZM302 689Q302 722 325 744T381 767Q416 767 438 745T461 689Q461 654 439 631T381
608Q348 608 325 631T302 689Z" />
<glyph unicode="&#xec;" glyph-name="igrave" horiz-adv-x="371" d="M30 0V53L115 73V409H30V462L190 500H271V73L356 53V0H30ZM33 715Q79 757 151 767L253 594L192 564L33 715Z" />
<glyph unicode="&#xed;" glyph-name="iacute" horiz-adv-x="371" d="M30 0V53L115 73V409H30V462L190 500H271V73L356 53V0H30ZM144 591L245 767Q317 755 363 715L204 564L144 591Z" />
<glyph unicode="&#xee;" glyph-name="icircumflex" horiz-adv-x="371" d="M30 0V53L115 73V409H30V462L190 500H271V73L356 53V0H30ZM2 586L117 766H226L343 586L275 562L172 687L70 562L2 586Z" />
<glyph unicode="&#xef;" glyph-name="idieresis" horiz-adv-x="371" d="M30 0V53L115 73V409H30V462L190 500H271V73L356 53V0H30ZM261 689Q261 722 284 744T340 767Q375 767 397 745T420 689Q420 654 398 631T340 608Q307 608 284 631T261 689ZM461 689Q461 722
484 744T540 767Q575 767 597 745T620 689Q620 654 598 631T540 608Q507 608 484 631T461 689Z" />
<glyph unicode="&#xf0;" glyph-name="eth" horiz-adv-x="635" d="M37 240Q37 343 102 410T270 478Q303 478 342 465T402 435Q378 538 311 599L179 518V596L251 640Q207 663 149 672V757Q255 749 348 699L464 770V692L410 659Q580 530 580 310Q580 161 507 73T290
-16Q163 -16 100 51T37 240ZM197 236Q197 156 224 103T300 49Q412 49 412 274Q412 283 407 358Q369 398 324 398Q262 398 230 362T197 236Z" />
<glyph unicode="&#xf1;" glyph-name="ntilde" horiz-adv-x="681" d="M30 0V53L115 73V409H30V462L190 500H269V451Q330 515 420 515Q459 515 490 504T543 471T577 421T589 358V73L674 53V0H370V53L435 73V330Q435 361 432 380T420 409T399 423T365 427Q327 427
269 383V73L334 53V0H30ZM146 663Q177 703 214 725T289 747Q321 747 363 720T435 693Q475 693 530 737L567 698Q549 664 509 634T419 603Q387 603 345 630T274 657Q251 657 228 645T182 620L146 663Z" />
<glyph unicode="&#xf2;" glyph-name="ograve" horiz-adv-x="605" d="M303 -15Q246 -15 197 5T111 60T54 144T33 251Q33 309 54 357T111 441T196 495T303 515Q360 515 409 496T494 441T551 358T572 251Q572 194 552 145T495 61T409 5T303 -15ZM194 251Q194 157
221 104T303 50Q357 50 384 103T412 251Q412 344 385 397T303 450Q249 450 222 397T194 251ZM139 715Q185 757 257 767L359 594L298 564L139 715Z" />
<glyph unicode="&#xf3;" glyph-name="oacute" horiz-adv-x="605" d="M303 -15Q246 -15 197 5T111 60T54 144T33 251Q33 309 54 357T111 441T196 495T303 515Q360 515 409 496T494 441T551 358T572 251Q572 194 552 145T495 61T409 5T303 -15ZM194 251Q194 157
221 104T303 50Q357 50 384 103T412 251Q412 344 385 397T303 450Q249 450 222 397T194 251ZM266 591L367 767Q439 755 485 715L326 564L266 591Z" />
<glyph unicode="&#xf4;" glyph-name="ocircumflex" horiz-adv-x="605" d="M303 -15Q246 -15 197 5T111 60T54 144T33 251Q33 309 54 357T111 441T196 495T303 515Q360 515 409 496T494 441T551 358T572 251Q572 194 552 145T495 61T409 5T303 -15ZM194 251Q194
157 221 104T303 50Q357 50 384 103T412 251Q412 344 385 397T303 450Q249 450 222 397T194 251ZM134 586L249 766H358L475 586L407 562L304 687L202 562L134 586Z" />
<glyph unicode="&#xf5;" glyph-name="otilde" horiz-adv-x="605" d="M303 -15Q246 -15 197 5T111 60T54 144T33 251Q33 309 54 357T111 441T196 495T303 515Q360 515 409 496T494 441T551 358T572 251Q572 194 552 145T495 61T409 5T303 -15ZM194 251Q194 157
221 104T303 50Q357 50 384 103T412 251Q412 344 385 397T303 450Q249 450 222 397T194 251ZM94 663Q125 703 162 725T237 747Q269 747 311 720T383 693Q423 693 478 737L515 698Q497 664 457 634T367 603Q335 603 293 630T222 657Q199 657 176 645T130 620L94
663Z" />
<glyph unicode="&#xf6;" glyph-name="odieresis" horiz-adv-x="605" d="M303 -15Q246 -15 197 5T111 60T54 144T33 251Q33 309 54 357T111 441T196 495T303 515Q360 515 409 496T494 441T551 358T572 251Q572 194 552 145T495 61T409 5T303 -15ZM194 251Q194 157
221 104T303 50Q357 50 384 103T412 251Q412 344 385 397T303 450Q249 450 222 397T194 251ZM134 689Q134 722 157 744T213 767Q248 767 270 745T293 689Q293 654 271 631T213 608Q180 608 157 631T134 689ZM334 689Q334 722 357 744T413 767Q448 767 470 745T493
689Q493 654 471 631T413 608Q380 608 357 631T334 689Z" />
<glyph unicode="&#xf7;" glyph-name="divide" horiz-adv-x="543" d="M47 313V399H496V313H47ZM205 187Q205 215 225 234T272 254Q300 254 319 235T339 187Q339 160 320 140T272 119Q245 119 225 139T205 187ZM205 526Q205 554 225 574T272 594Q300 594 319 574T339
526Q339 499 320 479T272 458Q245 458 225 478T205 526Z" />
<glyph unicode="&#xf8;" glyph-name="oslash" horiz-adv-x="605" d="M303 -15Q249 -15 202 2L162 -71H97L151 28Q129 42 111 60Q75 95 54 144T33 251Q33 309 54 357T111 441T196 495T303 515Q359 515 408 496L448 569H512L458 470Q477 457 494 441Q531 406 551
358T572 251Q572 194 552 145T495 61T409 5T303 -15ZM194 251Q194 181 209 134L367 422Q342 450 303 450Q249 450 222 397T194 251ZM303 50Q357 50 384 103T412 251Q412 316 398 361L241 74Q266 50 303 50Z" />
<glyph unicode="&#xf9;" glyph-name="ugrave" horiz-adv-x="667" d="M9 447V500H248V155Q248 104 260 85T311 65Q340 65 371 80T421 120V427L356 447V500H576V75H654V32Q632 17 619 11T589 -2T555 -12T522 -15Q450 -15 421 50Q350 -15 247 -15Q94 -15 94 142V427L9
447ZM154 715Q200 757 272 767L374 594L313 564L154 715Z" />
<glyph unicode="&#xfa;" glyph-name="uacute" horiz-adv-x="667" d="M9 447V500H248V155Q248 104 260 85T311 65Q340 65 371 80T421 120V427L356 447V500H576V75H654V32Q632 17 619 11T589 -2T555 -12T522 -15Q450 -15 421 50Q350 -15 247 -15Q94 -15 94 142V427L9
447ZM281 591L382 767Q454 755 500 715L341 564L281 591Z" />
<glyph unicode="&#xfb;" glyph-name="ucircumflex" horiz-adv-x="667" d="M9 447V500H248V155Q248 104 260 85T311 65Q340 65 371 80T421 120V427L356 447V500H576V75H654V32Q632 17 619 11T589 -2T555 -12T522 -15Q450 -15 421 50Q350 -15 247 -15Q94 -15 94
142V427L9 447ZM149 586L264 766H373L490 586L422 562L319 687L217 562L149 586Z" />
<glyph unicode="&#xfc;" glyph-name="udieresis" horiz-adv-x="667" d="M9 447V500H248V155Q248 104 260 85T311 65Q340 65 371 80T421 120V427L356 447V500H576V75H654V32Q632 17 619 11T589 -2T555 -12T522 -15Q450 -15 421 50Q350 -15 247 -15Q94 -15 94 142V427L9
447ZM139 689Q139 722 162 744T218 767Q253 767 275 745T298 689Q298 654 276 631T218 608Q185 608 162 631T139 689ZM339 689Q339 722 362 744T418 767Q453 767 475 745T498 689Q498 654 476 631T418 608Q385 608 362 631T339 689Z" />
<glyph unicode="&#xfd;" glyph-name="yacute" horiz-adv-x="613" d="M-5 447V500H304V447L238 435L367 178L461 428L385 447V500H617V447L534 424L255 -299H237Q207 -299 181 -286T143 -254L288 -23L70 426L-5 447ZM289 591L390 767Q462 755 508 715L349 564L289 591Z" />
<glyph unicode="&#xfe;" glyph-name="thorn" horiz-adv-x="593" d="M-14 -217L71 -197V710H-14V763L146 801H228V480Q279 515 349 515Q439 515 498 453T557 268Q557 131 480 58T278 -15Q248 -15 228 -11V-197L333 -217V-270H-14V-217ZM228 54Q244 50 269 50Q391
50 391 264Q391 430 297 430Q263 430 228 414V54Z" />
<glyph unicode="&#xff;" glyph-name="ydieresis" horiz-adv-x="613" d="M-5 447V500H304V447L238 435L367 178L461 428L385 447V500H617V447L534 424L255 -299H237Q207 -299 181 -286T143 -254L288 -23L70 426L-5 447ZM147 689Q147 722 170 744T226 767Q261 767
283 745T306 689Q306 654 284 631T226 608Q193 608 170 631T147 689ZM347 689Q347 722 370 744T426 767Q461 767 483 745T506 689Q506 654 484 631T426 608Q393 608 370 631T347 689Z" />
<glyph unicode="&#x2013;" glyph-name="endash" horiz-adv-x="616" d="M53 231V315H563V231H53Z" />
<glyph unicode="&#x2014;" glyph-name="emdash" horiz-adv-x="1116" d="M53 231V314H1063V231H53Z" />
<glyph unicode="&#x2018;" glyph-name="quoteleft" horiz-adv-x="261" d="M233 704Q174 643 140 574L221 523Q221 482 194 455T129 428Q84 428 60 453T36 526Q36 584 84 648T186 746L233 704Z" />
<glyph unicode="&#x2019;" glyph-name="quoteright" horiz-adv-x="260" d="M37 461Q96 522 130 591L49 642Q49 683 76 710T141 737Q186 737 210 712T234 639Q234 581 186 517T84 419L37 461Z" />
<glyph unicode="&#x201a;" glyph-name="quotesinglbase" horiz-adv-x="265" d="M25 -135Q84 -74 118 -5L37 46Q37 87 64 114T129 141Q174 141 198 116T222 43Q222 -15 174 -79T72 -177L25 -135Z" />
<glyph unicode="&#x201c;" glyph-name="quotedblleft" horiz-adv-x="466" d="M234 706Q175 645 141 576L222 525Q222 484 195 457T130 430Q85 430 61 455T37 528Q37 586 85 650T187 748L234 706ZM439 706Q380 645 346 576L427 525Q427 484 400 457T335 430Q290
430 266 455T242 528Q242 586 290 650T392 748L439 706Z" />
<glyph unicode="&#x201d;" glyph-name="quotedblright" horiz-adv-x="465" d="M37 461Q96 522 130 591L49 642Q49 683 76 710T141 737Q186 737 210 712T234 639Q234 581 186 517T84 419L37 461ZM242 461Q301 522 335 591L254 642Q254 683 281 710T346 737Q391
737 415 712T439 639Q439 581 391 517T289 419L242 461Z" />
<glyph unicode="&#x201e;" glyph-name="quotedblbase" horiz-adv-x="469" d="M25 -135Q84 -74 118 -5L37 46Q37 87 64 114T129 141Q174 141 198 116T222 43Q222 -15 174 -79T72 -177L25 -135ZM230 -135Q289 -74 323 -5L242 46Q242 87 269 114T334 141Q379 141
403 116T427 43Q427 -15 379 -79T277 -177L230 -135Z" />
<glyph unicode="&#x2022;" glyph-name="bullet" horiz-adv-x="434" d="M55 359Q55 423 103 471T219 519Q284 519 331 472T379 359Q379 295 332 245T219 195Q151 195 103 245T55 359Z" />
<glyph unicode="&#x2039;" glyph-name="guilsinglleft" horiz-adv-x="315" d="M42 254V286L205 470L260 450L189 270L260 90L205 70L42 254Z" />
<glyph unicode="&#x203a;" glyph-name="guilsinglright" horiz-adv-x="315" d="M110 70L55 90L126 270L55 450L110 470L273 286V254L110 70Z" />
</font>
</defs>
</svg>
